<?xml version="1.0" encoding="UTF-8" standalone="no"?>
<!-- Generator: Adobe Illustrator 19.0.0, SVG Export Plug-In . SVG Version: 6.00 Build 0)  -->

<svg
   xmlns:dc="http://purl.org/dc/elements/1.1/"
   xmlns:cc="http://creativecommons.org/ns#"
   xmlns:rdf="http://www.w3.org/1999/02/22-rdf-syntax-ns#"
   xmlns:svg="http://www.w3.org/2000/svg"
   xmlns="http://www.w3.org/2000/svg"
   xmlns:sodipodi="http://sodipodi.sourceforge.net/DTD/sodipodi-0.dtd"
   xmlns:inkscape="http://www.inkscape.org/namespaces/inkscape"
   version="1.1"
   id="Capa_1"
   x="0px"
   y="0px"
   viewBox="0 0 512.00002 512.00002"
   xml:space="preserve"
   sodipodi:docname="cart.svg"
   inkscape:version="0.92.5 (2060ec1f9f, 2020-04-08)"
   width="512"
   height="512"><metadata
   id="metadata49"><rdf:RDF><cc:Work
       rdf:about=""><dc:format>image/svg+xml</dc:format><dc:type
         rdf:resource="http://purl.org/dc/dcmitype/StillImage" /><dc:title></dc:title></cc:Work></rdf:RDF></metadata><defs
   id="defs47" /><sodipodi:namedview
   pagecolor="#ffffff"
   bordercolor="#666666"
   borderopacity="1"
   objecttolerance="10"
   gridtolerance="10"
   guidetolerance="10"
   inkscape:pageopacity="0"
   inkscape:pageshadow="2"
   inkscape:window-width="2560"
   inkscape:window-height="1375"
   id="namedview45"
   showgrid="false"
   inkscape:zoom="0.55737149"
   inkscape:cx="-100.47128"
   inkscape:cy="207.674"
   inkscape:window-x="0"
   inkscape:window-y="0"
   inkscape:window-maximized="1"
   inkscape:current-layer="Capa_1"
   fit-margin-top="0"
   fit-margin-left="0"
   fit-margin-right="0"
   fit-margin-bottom="0" />
<g
   id="g12"
   style="fill:#ffffff"
   transform="matrix(1.2092109,0,0,1.2327042,3.8019666e-4,-4.9739614)">
	<g
   id="g10"
   style="fill:#ffffff">
		<g
   id="g8"
   style="fill:#ffffff">
			<path
   d="m 420.688,145.096 c -2.069,-2.033 -4.961,-2.997 -7.837,-2.612 H 300.525 V 92.851 c 0,-49.052 -39.764,-88.816 -88.816,-88.816 -49.052,0 -88.816,39.764 -88.816,88.816 v 49.633 H 10.565 c -3.135,0 -6.269,0 -7.837,2.612 -2.106,2.024 -3.083,4.954 -2.612,7.837 L 39.3,367.137 c 5.474,29.881 31.275,51.746 61.649,52.245 h 221.518 c 30.461,-0.749 56.208,-22.787 61.649,-52.767 L 423.3,152.933 c 0.471,-2.883 -0.506,-5.813 -2.612,-7.837 z M 143.79,92.851 c 0,-37.51 30.408,-67.918 67.918,-67.918 37.51,0 67.918,30.408 67.918,67.918 v 49.633 H 143.79 Z m 219.428,271.151 c -3.519,19.801 -20.641,34.289 -40.751,34.482 H 100.949 C 80.839,398.291 63.717,383.804 60.198,364.002 L 23.104,163.382 h 377.208 z"
   id="path2"
   style="fill:#ffffff"
   inkscape:connector-curvature="0" />
			<path
   d="m 290.076,265.259 c 5.771,0 10.449,-4.678 10.449,-10.449 v -31.347 c 0,-5.771 -4.678,-10.449 -10.449,-10.449 -5.771,0 -10.449,4.678 -10.449,10.449 v 31.347 c -0.001,5.771 4.678,10.449 10.449,10.449 z"
   id="path4"
   style="fill:#ffffff"
   inkscape:connector-curvature="0" />
			<path
   d="m 133.341,265.259 c 5.771,0 10.449,-4.678 10.449,-10.449 v -31.347 c 0,-5.771 -4.678,-10.449 -10.449,-10.449 -5.771,0 -10.449,4.678 -10.449,10.449 v 31.347 c 0,5.771 4.678,10.449 10.449,10.449 z"
   id="path6"
   style="fill:#ffffff"
   inkscape:connector-curvature="0" />
		</g>
	</g>
</g>
<g
   id="g14"
   transform="translate(3.1441716e-4,92.617998)">
</g>
<g
   id="g16"
   transform="translate(3.1441716e-4,92.617998)">
</g>
<g
   id="g18"
   transform="translate(3.1441716e-4,92.617998)">
</g>
<g
   id="g20"
   transform="translate(3.1441716e-4,92.617998)">
</g>
<g
   id="g22"
   transform="translate(3.1441716e-4,92.617998)">
</g>
<g
   id="g24"
   transform="translate(3.1441716e-4,92.617998)">
</g>
<g
   id="g26"
   transform="translate(3.1441716e-4,92.617998)">
</g>
<g
   id="g28"
   transform="translate(3.1441716e-4,92.617998)">
</g>
<g
   id="g30"
   transform="translate(3.1441716e-4,92.617998)">
</g>
<g
   id="g32"
   transform="translate(3.1441716e-4,92.617998)">
</g>
<g
   id="g34"
   transform="translate(3.1441716e-4,92.617998)">
</g>
<g
   id="g36"
   transform="translate(3.1441716e-4,92.617998)">
</g>
<g
   id="g38"
   transform="translate(3.1441716e-4,92.617998)">
</g>
<g
   id="g40"
   transform="translate(3.1441716e-4,92.617998)">
</g>
<g
   id="g42"
   transform="translate(3.1441716e-4,92.617998)">
</g>
</svg>