<?xml version="1.0" encoding="UTF-8" standalone="no"?>
<!-- Generator: Adobe Illustrator 19.0.0, SVG Export Plug-In . SVG Version: 6.00 Build 0)  -->

<svg
   xmlns:dc="http://purl.org/dc/elements/1.1/"
   xmlns:cc="http://creativecommons.org/ns#"
   xmlns:rdf="http://www.w3.org/1999/02/22-rdf-syntax-ns#"
   xmlns:svg="http://www.w3.org/2000/svg"
   xmlns="http://www.w3.org/2000/svg"
   xmlns:sodipodi="http://sodipodi.sourceforge.net/DTD/sodipodi-0.dtd"
   xmlns:inkscape="http://www.inkscape.org/namespaces/inkscape"
   version="1.1"
   id="Capa_1"
   x="0px"
   y="0px"
   viewBox="0 0 512.00001 512.00001"
   xml:space="preserve"
   sodipodi:docname="login.svg"
   inkscape:version="0.92.5 (2060ec1f9f, 2020-04-08)"
   width="512"
   height="512"><metadata
   id="metadata55"><rdf:RDF><cc:Work
       rdf:about=""><dc:format>image/svg+xml</dc:format><dc:type
         rdf:resource="http://purl.org/dc/dcmitype/StillImage" /><dc:title></dc:title></cc:Work></rdf:RDF></metadata><defs
   id="defs53" /><sodipodi:namedview
   pagecolor="#ffffff"
   bordercolor="#666666"
   borderopacity="1"
   objecttolerance="10"
   gridtolerance="10"
   guidetolerance="10"
   inkscape:pageopacity="0"
   inkscape:pageshadow="2"
   inkscape:window-width="2560"
   inkscape:window-height="1375"
   id="namedview51"
   showgrid="false"
   inkscape:zoom="0.48097794"
   inkscape:cx="-116.42945"
   inkscape:cy="245.33252"
   inkscape:window-x="0"
   inkscape:window-y="0"
   inkscape:window-maximized="1"
   inkscape:current-layer="Capa_1"
   fit-margin-top="0"
   fit-margin-left="0"
   fit-margin-right="0"
   fit-margin-bottom="0" />


<g
   id="g844"
   transform="scale(1.0434797)"
   style="fill:#ffffff"><g
     style="fill:#ffffff"
     id="g6">
	<g
   style="fill:#ffffff"
   id="g4">
		<path
   style="fill:#ffffff"
   id="path2"
   d="M 437.333,0 H 202.667 C 173.27,0 149.334,23.936 149.334,53.333 v 128 c 0,5.888 4.779,10.667 10.667,10.667 5.888,0 10.667,-4.779 10.667,-10.667 v -128 c 0,-17.643 14.357,-32 32,-32 h 234.667 c 17.643,0 32,14.357 32,32 v 384 c 0,17.643 -14.357,32 -32,32 H 202.667 c -17.643,0 -32,-14.357 -32,-32 v -128 c 0,-5.888 -4.779,-10.667 -10.667,-10.667 -5.888,0 -10.667,4.779 -10.667,10.667 v 128 c 0,29.397 23.936,53.333 53.333,53.333 h 234.667 c 29.397,0 53.333,-23.936 53.333,-53.333 v -384 C 490.667,23.936 466.731,0 437.333,0 Z"
   inkscape:connector-curvature="0" />
	</g>
</g><g
     style="fill:#ffffff"
     id="g12">
	<g
   style="fill:#ffffff"
   id="g10">
		<path
   style="fill:#ffffff"
   id="path8"
   d="M 352,234.667 H 10.667 C 4.779,234.667 0,239.445 0,245.333 0,251.221 4.779,256 10.667,256 H 352 c 5.888,0 10.667,-4.779 10.667,-10.667 0,-5.888 -4.779,-10.666 -10.667,-10.666 z"
   inkscape:connector-curvature="0" />
	</g>
</g><g
     style="fill:#ffffff"
     id="g18">
	<g
   style="fill:#ffffff"
   id="g16">
		<path
   style="fill:#ffffff"
   id="path14"
   d="m 359.531,237.824 -64,-64 c -4.16,-4.16 -10.923,-4.16 -15.083,0 -4.16,4.16 -4.16,10.923 0,15.083 l 56.448,56.448 -56.448,56.448 c -4.16,4.16 -4.16,10.923 0,15.083 2.091,2.069 4.821,3.115 7.552,3.115 2.731,0 5.461,-1.045 7.531,-3.093 l 64,-64 c 4.16,-4.161 4.16,-10.924 0,-15.084 z"
   inkscape:connector-curvature="0" />
	</g>
</g></g>
<g
   id="g20"
   transform="translate(0,21.334)">
</g>
<g
   id="g22"
   transform="translate(0,21.334)">
</g>
<g
   id="g24"
   transform="translate(0,21.334)">
</g>
<g
   id="g26"
   transform="translate(0,21.334)">
</g>
<g
   id="g28"
   transform="translate(0,21.334)">
</g>
<g
   id="g30"
   transform="translate(0,21.334)">
</g>
<g
   id="g32"
   transform="translate(0,21.334)">
</g>
<g
   id="g34"
   transform="translate(0,21.334)">
</g>
<g
   id="g36"
   transform="translate(0,21.334)">
</g>
<g
   id="g38"
   transform="translate(0,21.334)">
</g>
<g
   id="g40"
   transform="translate(0,21.334)">
</g>
<g
   id="g42"
   transform="translate(0,21.334)">
</g>
<g
   id="g44"
   transform="translate(0,21.334)">
</g>
<g
   id="g46"
   transform="translate(0,21.334)">
</g>
<g
   id="g48"
   transform="translate(0,21.334)">
</g>
</svg>